<?xml version="1.0" encoding="utf-8"?>
<svg xmlns="http://www.w3.org/2000/svg" xmlns:xlink="http://www.w3.org/1999/xlink" width="600" height="400" viewBox="0 0 2400 1600">
<defs>
  <clipPath id="clip370">
    <rect x="0" y="0" width="2400" height="1600"/>
  </clipPath>
</defs>
<path clip-path="url(#clip370)" d="M0 1600 L2400 1600 L2400 0 L0 0  Z" fill="#ffffff" fill-rule="evenodd" fill-opacity="1"/>
<defs>
  <clipPath id="clip371">
    <rect x="181" y="110" width="2173" height="1377"/>
  </clipPath>
</defs>
<path clip-path="url(#clip370)" d="M181.183 1486.45 L2352.76 1486.45 L2352.76 110.512 L181.183 110.512  Z" fill="#ffffff" fill-rule="evenodd" fill-opacity="1"/>
<polyline clip-path="url(#clip371)" style="stroke:#000000; stroke-linecap:round; stroke-linejoin:round; stroke-width:2; stroke-opacity:0.1; fill:none" points="242.642,1486.45 242.642,110.512 "/>
<polyline clip-path="url(#clip371)" style="stroke:#000000; stroke-linecap:round; stroke-linejoin:round; stroke-width:2; stroke-opacity:0.1; fill:none" points="181.183,1445.06 2352.76,1445.06 "/>
<polyline clip-path="url(#clip371)" style="stroke:#000000; stroke-linecap:round; stroke-linejoin:round; stroke-width:2; stroke-opacity:0.1; fill:none" points="181.183,970.781 2352.76,970.781 "/>
<polyline clip-path="url(#clip371)" style="stroke:#000000; stroke-linecap:round; stroke-linejoin:round; stroke-width:2; stroke-opacity:0.1; fill:none" points="181.183,496.506 2352.76,496.506 "/>
<polyline clip-path="url(#clip370)" style="stroke:#000000; stroke-linecap:round; stroke-linejoin:round; stroke-width:4; stroke-opacity:1; fill:none" points="181.183,1486.45 2352.76,1486.45 "/>
<polyline clip-path="url(#clip370)" style="stroke:#000000; stroke-linecap:round; stroke-linejoin:round; stroke-width:4; stroke-opacity:1; fill:none" points="242.642,1486.45 242.642,1467.55 "/>
<path clip-path="url(#clip370)" d="M233.024 1544.91 L240.663 1544.91 L240.663 1518.55 L232.353 1520.21 L232.353 1515.95 L240.617 1514.29 L245.293 1514.29 L245.293 1544.91 L252.932 1544.91 L252.932 1548.85 L233.024 1548.85 L233.024 1544.91 Z" fill="#000000" fill-rule="nonzero" fill-opacity="1" /><polyline clip-path="url(#clip370)" style="stroke:#000000; stroke-linecap:round; stroke-linejoin:round; stroke-width:4; stroke-opacity:1; fill:none" points="181.183,1486.45 181.183,110.512 "/>
<polyline clip-path="url(#clip370)" style="stroke:#000000; stroke-linecap:round; stroke-linejoin:round; stroke-width:4; stroke-opacity:1; fill:none" points="181.183,1445.06 200.081,1445.06 "/>
<polyline clip-path="url(#clip370)" style="stroke:#000000; stroke-linecap:round; stroke-linejoin:round; stroke-width:4; stroke-opacity:1; fill:none" points="181.183,970.781 200.081,970.781 "/>
<polyline clip-path="url(#clip370)" style="stroke:#000000; stroke-linecap:round; stroke-linejoin:round; stroke-width:4; stroke-opacity:1; fill:none" points="181.183,496.506 200.081,496.506 "/>
<path clip-path="url(#clip370)" d="M75.7186 1464.85 L83.3574 1464.85 L83.3574 1438.48 L75.0473 1440.15 L75.0473 1435.89 L83.3111 1434.22 L87.987 1434.22 L87.987 1464.85 L95.6259 1464.85 L95.6259 1468.78 L75.7186 1468.78 L75.7186 1464.85 Z" fill="#000000" fill-rule="nonzero" fill-opacity="1" /><path clip-path="url(#clip370)" d="M115.07 1437.3 Q111.459 1437.3 109.63 1440.87 Q107.825 1444.41 107.825 1451.54 Q107.825 1458.65 109.63 1462.21 Q111.459 1465.75 115.07 1465.75 Q118.704 1465.75 120.51 1462.21 Q122.339 1458.65 122.339 1451.54 Q122.339 1444.41 120.51 1440.87 Q118.704 1437.3 115.07 1437.3 M115.07 1433.6 Q120.88 1433.6 123.936 1438.21 Q127.015 1442.79 127.015 1451.54 Q127.015 1460.27 123.936 1464.87 Q120.88 1469.46 115.07 1469.46 Q109.26 1469.46 106.181 1464.87 Q103.126 1460.27 103.126 1451.54 Q103.126 1442.79 106.181 1438.21 Q109.26 1433.6 115.07 1433.6 Z" fill="#000000" fill-rule="nonzero" fill-opacity="1" /><path clip-path="url(#clip370)" d="M128.199 1413.29 L143.114 1413.29 L143.114 1416.49 L131.679 1416.49 L131.679 1423.37 Q132.506 1423.09 133.334 1422.96 Q134.162 1422.81 134.989 1422.81 Q139.691 1422.81 142.437 1425.39 Q145.183 1427.96 145.183 1432.36 Q145.183 1436.9 142.362 1439.42 Q139.541 1441.92 134.406 1441.92 Q132.638 1441.92 130.795 1441.62 Q128.971 1441.32 127.015 1440.72 L127.015 1436.9 Q128.707 1437.82 130.513 1438.27 Q132.318 1438.72 134.331 1438.72 Q137.585 1438.72 139.484 1437.01 Q141.384 1435.3 141.384 1432.36 Q141.384 1429.43 139.484 1427.72 Q137.585 1426.01 134.331 1426.01 Q132.807 1426.01 131.284 1426.35 Q129.779 1426.68 128.199 1427.4 L128.199 1413.29 Z" fill="#000000" fill-rule="nonzero" fill-opacity="1" /><path clip-path="url(#clip370)" d="M51.6634 990.574 L59.3023 990.574 L59.3023 964.208 L50.9921 965.875 L50.9921 961.616 L59.256 959.949 L63.9319 959.949 L63.9319 990.574 L71.5707 990.574 L71.5707 994.509 L51.6634 994.509 L51.6634 990.574 Z" fill="#000000" fill-rule="nonzero" fill-opacity="1" /><path clip-path="url(#clip370)" d="M91.0151 963.028 Q87.404 963.028 85.5753 966.592 Q83.7697 970.134 83.7697 977.264 Q83.7697 984.37 85.5753 987.935 Q87.404 991.476 91.0151 991.476 Q94.6493 991.476 96.4548 987.935 Q98.2835 984.37 98.2835 977.264 Q98.2835 970.134 96.4548 966.592 Q94.6493 963.028 91.0151 963.028 M91.0151 959.324 Q96.8252 959.324 99.8808 963.93 Q102.959 968.514 102.959 977.264 Q102.959 985.99 99.8808 990.597 Q96.8252 995.18 91.0151 995.18 Q85.2049 995.18 82.1262 990.597 Q79.0707 985.99 79.0707 977.264 Q79.0707 968.514 82.1262 963.93 Q85.2049 959.324 91.0151 959.324 Z" fill="#000000" fill-rule="nonzero" fill-opacity="1" /><path clip-path="url(#clip370)" d="M103.505 963.901 L109.711 963.901 L109.711 942.479 L102.959 943.833 L102.959 940.373 L109.674 939.018 L113.473 939.018 L113.473 963.901 L119.68 963.901 L119.68 967.098 L103.505 967.098 L103.505 963.901 Z" fill="#000000" fill-rule="nonzero" fill-opacity="1" /><path clip-path="url(#clip370)" d="M135.478 941.52 Q132.544 941.52 131.058 944.416 Q129.591 947.294 129.591 953.087 Q129.591 958.861 131.058 961.757 Q132.544 964.635 135.478 964.635 Q138.431 964.635 139.898 961.757 Q141.384 958.861 141.384 953.087 Q141.384 947.294 139.898 944.416 Q138.431 941.52 135.478 941.52 M135.478 938.511 Q140.199 938.511 142.681 942.253 Q145.183 945.977 145.183 953.087 Q145.183 960.177 142.681 963.92 Q140.199 967.644 135.478 967.644 Q130.757 967.644 128.256 963.92 Q125.773 960.177 125.773 953.087 Q125.773 945.977 128.256 942.253 Q130.757 938.511 135.478 938.511 Z" fill="#000000" fill-rule="nonzero" fill-opacity="1" /><path clip-path="url(#clip370)" d="M52.4722 516.299 L60.111 516.299 L60.111 489.933 L51.8009 491.6 L51.8009 487.341 L60.0647 485.674 L64.7406 485.674 L64.7406 516.299 L72.3795 516.299 L72.3795 520.234 L52.4722 520.234 L52.4722 516.299 Z" fill="#000000" fill-rule="nonzero" fill-opacity="1" /><path clip-path="url(#clip370)" d="M91.8238 488.753 Q88.2127 488.753 86.384 492.317 Q84.5785 495.859 84.5785 502.989 Q84.5785 510.095 86.384 513.66 Q88.2127 517.202 91.8238 517.202 Q95.458 517.202 97.2636 513.66 Q99.0923 510.095 99.0923 502.989 Q99.0923 495.859 97.2636 492.317 Q95.458 488.753 91.8238 488.753 M91.8238 485.049 Q97.6339 485.049 100.689 489.655 Q103.768 494.239 103.768 502.989 Q103.768 511.715 100.689 516.322 Q97.6339 520.905 91.8238 520.905 Q86.0136 520.905 82.935 516.322 Q79.8794 511.715 79.8794 502.989 Q79.8794 494.239 82.935 489.655 Q86.0136 485.049 91.8238 485.049 Z" fill="#000000" fill-rule="nonzero" fill-opacity="1" /><path clip-path="url(#clip370)" d="M104.314 489.626 L110.52 489.626 L110.52 468.204 L103.768 469.558 L103.768 466.098 L110.483 464.744 L114.282 464.744 L114.282 489.626 L120.488 489.626 L120.488 492.824 L104.314 492.824 L104.314 489.626 Z" fill="#000000" fill-rule="nonzero" fill-opacity="1" /><path clip-path="url(#clip370)" d="M128.199 464.744 L143.114 464.744 L143.114 467.941 L131.679 467.941 L131.679 474.824 Q132.506 474.542 133.334 474.411 Q134.162 474.26 134.989 474.26 Q139.691 474.26 142.437 476.837 Q145.183 479.414 145.183 483.815 Q145.183 488.347 142.362 490.867 Q139.541 493.369 134.406 493.369 Q132.638 493.369 130.795 493.068 Q128.971 492.767 127.015 492.165 L127.015 488.347 Q128.707 489.269 130.513 489.72 Q132.318 490.172 134.331 490.172 Q137.585 490.172 139.484 488.46 Q141.384 486.749 141.384 483.815 Q141.384 480.881 139.484 479.169 Q137.585 477.458 134.331 477.458 Q132.807 477.458 131.284 477.796 Q129.779 478.135 128.199 478.849 L128.199 464.744 Z" fill="#000000" fill-rule="nonzero" fill-opacity="1" /><path clip-path="url(#clip370)" d="M769.139 11.0636 L769.139 17.3338 Q765.479 15.5832 762.233 14.7239 Q758.986 13.8645 755.962 13.8645 Q750.711 13.8645 747.846 15.9015 Q745.013 17.9386 745.013 21.6943 Q745.013 24.8454 746.891 26.4686 Q748.801 28.06 754.084 29.0467 L757.967 29.8424 Q765.161 31.2111 768.566 34.6804 Q772.004 38.1179 772.004 43.9106 Q772.004 50.8174 767.357 54.3822 Q762.742 57.947 753.798 57.947 Q750.424 57.947 746.605 57.1831 Q742.817 56.4193 738.743 54.9233 L738.743 48.303 Q742.658 50.4992 746.414 51.6131 Q750.17 52.7271 753.798 52.7271 Q759.304 52.7271 762.296 50.5628 Q765.288 48.3985 765.288 44.3881 Q765.288 40.8869 763.124 38.9136 Q760.991 36.9402 756.09 35.9535 L752.175 35.1896 Q744.981 33.7573 741.767 30.7018 Q738.552 27.6463 738.552 22.2036 Q738.552 15.9015 742.976 12.2731 Q747.432 8.64463 755.23 8.64463 Q758.572 8.64463 762.042 9.24937 Q765.511 9.85411 769.139 11.0636 Z" fill="#000000" fill-rule="nonzero" fill-opacity="1" /><path clip-path="url(#clip370)" d="M781.775 21.376 L787.632 21.376 L787.632 57.024 L781.775 57.024 L781.775 21.376 M781.775 7.4988 L787.632 7.4988 L787.632 14.9149 L781.775 14.9149 L781.775 7.4988 Z" fill="#000000" fill-rule="nonzero" fill-opacity="1" /><path clip-path="url(#clip370)" d="M829.518 35.5079 L829.518 57.024 L823.662 57.024 L823.662 35.6989 Q823.662 30.6381 821.688 28.1237 Q819.715 25.6092 815.768 25.6092 Q811.026 25.6092 808.288 28.6329 Q805.551 31.6567 805.551 36.8765 L805.551 57.024 L799.663 57.024 L799.663 21.376 L805.551 21.376 L805.551 26.9142 Q807.652 23.6995 810.485 22.1081 Q813.349 20.5167 817.073 20.5167 Q823.216 20.5167 826.367 24.3361 Q829.518 28.1237 829.518 35.5079 Z" fill="#000000" fill-rule="nonzero" fill-opacity="1" /><path clip-path="url(#clip370)" d="M864.657 38.7863 Q864.657 32.4205 862.015 28.9194 Q859.405 25.4183 854.663 25.4183 Q849.952 25.4183 847.31 28.9194 Q844.7 32.4205 844.7 38.7863 Q844.7 45.1201 847.31 48.6213 Q849.952 52.1224 854.663 52.1224 Q859.405 52.1224 862.015 48.6213 Q864.657 45.1201 864.657 38.7863 M870.513 52.5998 Q870.513 61.7028 866.471 66.127 Q862.429 70.583 854.09 70.583 Q851.002 70.583 848.265 70.1055 Q845.528 69.6599 842.95 68.7051 L842.95 63.0078 Q845.528 64.4082 848.042 65.0766 Q850.557 65.745 853.167 65.745 Q858.928 65.745 861.792 62.7213 Q864.657 59.7294 864.657 53.6502 L864.657 50.7538 Q862.843 53.9048 860.01 55.4644 Q857.177 57.024 853.23 57.024 Q846.674 57.024 842.663 52.0269 Q838.653 47.0298 838.653 38.7863 Q838.653 30.5108 842.663 25.5138 Q846.674 20.5167 853.23 20.5167 Q857.177 20.5167 860.01 22.0763 Q862.843 23.6359 864.657 26.7869 L864.657 21.376 L870.513 21.376 L870.513 52.5998 Z" fill="#000000" fill-rule="nonzero" fill-opacity="1" /><path clip-path="url(#clip370)" d="M881.971 42.9558 L881.971 21.376 L887.828 21.376 L887.828 42.733 Q887.828 47.7937 889.801 50.34 Q891.775 52.8545 895.721 52.8545 Q900.464 52.8545 903.201 49.8308 Q905.97 46.807 905.97 41.5872 L905.97 21.376 L911.827 21.376 L911.827 57.024 L905.97 57.024 L905.97 51.5495 Q903.838 54.796 901.005 56.3874 Q898.204 57.947 894.48 57.947 Q888.337 57.947 885.154 54.1276 Q881.971 50.3082 881.971 42.9558 M896.708 20.5167 L896.708 20.5167 Z" fill="#000000" fill-rule="nonzero" fill-opacity="1" /><path clip-path="url(#clip370)" d="M923.89 7.4988 L929.746 7.4988 L929.746 57.024 L923.89 57.024 L923.89 7.4988 Z" fill="#000000" fill-rule="nonzero" fill-opacity="1" /><path clip-path="url(#clip370)" d="M958.201 39.1045 Q951.103 39.1045 948.366 40.7278 Q945.629 42.351 945.629 46.266 Q945.629 49.3852 947.666 51.2312 Q949.734 53.0454 953.267 53.0454 Q958.137 53.0454 961.065 49.608 Q964.025 46.1386 964.025 40.4095 L964.025 39.1045 L958.201 39.1045 M969.882 36.6856 L969.882 57.024 L964.025 57.024 L964.025 51.6131 Q962.02 54.8597 959.028 56.4193 Q956.036 57.947 951.708 57.947 Q946.233 57.947 942.987 54.8915 Q939.772 51.8041 939.772 46.6479 Q939.772 40.6323 943.782 37.5768 Q947.825 34.5212 955.814 34.5212 L964.025 34.5212 L964.025 33.9483 Q964.025 29.9061 961.352 27.7099 Q958.71 25.4819 953.904 25.4819 Q950.848 25.4819 947.952 26.214 Q945.056 26.946 942.382 28.4101 L942.382 22.9993 Q945.597 21.758 948.62 21.1532 Q951.644 20.5167 954.509 20.5167 Q962.243 20.5167 966.062 24.5271 Q969.882 28.5375 969.882 36.6856 Z" fill="#000000" fill-rule="nonzero" fill-opacity="1" /><path clip-path="url(#clip370)" d="M1002.6 26.8506 Q1001.61 26.2776 1000.44 26.023 Q999.291 25.7366 997.891 25.7366 Q992.926 25.7366 990.252 28.9831 Q987.61 32.1977 987.61 38.2452 L987.61 57.024 L981.722 57.024 L981.722 21.376 L987.61 21.376 L987.61 26.9142 Q989.456 23.6677 992.416 22.1081 Q995.377 20.5167 999.61 20.5167 Q1000.21 20.5167 1000.95 20.6122 Q1001.68 20.6758 1002.57 20.835 L1002.6 26.8506 Z" fill="#000000" fill-rule="nonzero" fill-opacity="1" /><path clip-path="url(#clip370)" d="M1025.26 21.376 L1031.47 21.376 L1042.61 51.2949 L1053.75 21.376 L1059.96 21.376 L1046.59 57.024 L1038.63 57.024 L1025.26 21.376 Z" fill="#000000" fill-rule="nonzero" fill-opacity="1" /><path clip-path="url(#clip370)" d="M1084.24 39.1045 Q1077.14 39.1045 1074.41 40.7278 Q1071.67 42.351 1071.67 46.266 Q1071.67 49.3852 1073.71 51.2312 Q1075.78 53.0454 1079.31 53.0454 Q1084.18 53.0454 1087.11 49.608 Q1090.07 46.1386 1090.07 40.4095 L1090.07 39.1045 L1084.24 39.1045 M1095.92 36.6856 L1095.92 57.024 L1090.07 57.024 L1090.07 51.6131 Q1088.06 54.8597 1085.07 56.4193 Q1082.08 57.947 1077.75 57.947 Q1072.27 57.947 1069.03 54.8915 Q1065.81 51.8041 1065.81 46.6479 Q1065.81 40.6323 1069.82 37.5768 Q1073.87 34.5212 1081.85 34.5212 L1090.07 34.5212 L1090.07 33.9483 Q1090.07 29.9061 1087.39 27.7099 Q1084.75 25.4819 1079.94 25.4819 Q1076.89 25.4819 1073.99 26.214 Q1071.1 26.946 1068.42 28.4101 L1068.42 22.9993 Q1071.64 21.758 1074.66 21.1532 Q1077.69 20.5167 1080.55 20.5167 Q1088.28 20.5167 1092.1 24.5271 Q1095.92 28.5375 1095.92 36.6856 Z" fill="#000000" fill-rule="nonzero" fill-opacity="1" /><path clip-path="url(#clip370)" d="M1107.99 7.4988 L1113.84 7.4988 L1113.84 57.024 L1107.99 57.024 L1107.99 7.4988 Z" fill="#000000" fill-rule="nonzero" fill-opacity="1" /><path clip-path="url(#clip370)" d="M1125.49 42.9558 L1125.49 21.376 L1131.35 21.376 L1131.35 42.733 Q1131.35 47.7937 1133.32 50.34 Q1135.29 52.8545 1139.24 52.8545 Q1143.98 52.8545 1146.72 49.8308 Q1149.49 46.807 1149.49 41.5872 L1149.49 21.376 L1155.35 21.376 L1155.35 57.024 L1149.49 57.024 L1149.49 51.5495 Q1147.36 54.796 1144.53 56.3874 Q1141.72 57.947 1138 57.947 Q1131.86 57.947 1128.67 54.1276 Q1125.49 50.3082 1125.49 42.9558 M1140.23 20.5167 L1140.23 20.5167 Z" fill="#000000" fill-rule="nonzero" fill-opacity="1" /><path clip-path="url(#clip370)" d="M1197.9 37.7359 L1197.9 40.6005 L1170.97 40.6005 Q1171.36 46.6479 1174.6 49.8308 Q1177.88 52.9818 1183.71 52.9818 Q1187.08 52.9818 1190.23 52.1542 Q1193.41 51.3267 1196.53 49.6716 L1196.53 55.2098 Q1193.38 56.5466 1190.07 57.2468 Q1186.76 57.947 1183.36 57.947 Q1174.83 57.947 1169.83 52.9818 Q1164.86 48.0165 1164.86 39.5501 Q1164.86 30.7973 1169.57 25.6729 Q1174.32 20.5167 1182.34 20.5167 Q1189.53 20.5167 1193.7 25.1636 Q1197.9 29.7788 1197.9 37.7359 M1192.05 36.0172 Q1191.98 31.2111 1189.34 28.3465 Q1186.73 25.4819 1182.4 25.4819 Q1177.5 25.4819 1174.54 28.251 Q1171.61 31.0201 1171.17 36.049 L1192.05 36.0172 Z" fill="#000000" fill-rule="nonzero" fill-opacity="1" /><path clip-path="url(#clip370)" d="M1230.24 22.4264 L1230.24 27.9645 Q1227.76 26.6914 1225.08 26.0548 Q1222.41 25.4183 1219.54 25.4183 Q1215.18 25.4183 1212.99 26.7551 Q1210.82 28.0919 1210.82 30.7655 Q1210.82 32.8025 1212.38 33.9801 Q1213.94 35.126 1218.65 36.1763 L1220.66 36.6219 Q1226.9 37.9587 1229.51 40.4095 Q1232.15 42.8285 1232.15 47.189 Q1232.15 52.1542 1228.2 55.0506 Q1224.29 57.947 1217.41 57.947 Q1214.55 57.947 1211.43 57.3741 Q1208.34 56.833 1204.9 55.719 L1204.9 49.6716 Q1208.15 51.3585 1211.3 52.2179 Q1214.45 53.0454 1217.54 53.0454 Q1221.68 53.0454 1223.91 51.645 Q1226.13 50.2127 1226.13 47.6346 Q1226.13 45.2474 1224.51 43.9743 Q1222.92 42.7012 1217.48 41.5235 L1215.44 41.0461 Q1210 39.9002 1207.58 37.5449 Q1205.16 35.1578 1205.16 31.0201 Q1205.16 25.9912 1208.72 23.2539 Q1212.29 20.5167 1218.84 20.5167 Q1222.09 20.5167 1224.96 20.9941 Q1227.82 21.4715 1230.24 22.4264 Z" fill="#000000" fill-rule="nonzero" fill-opacity="1" /><path clip-path="url(#clip370)" d="M1276.01 25.4819 Q1271.3 25.4819 1268.56 29.174 Q1265.82 32.8343 1265.82 39.2318 Q1265.82 45.6294 1268.53 49.3215 Q1271.27 52.9818 1276.01 52.9818 Q1280.69 52.9818 1283.42 49.2897 Q1286.16 45.5976 1286.16 39.2318 Q1286.16 32.898 1283.42 29.2059 Q1280.69 25.4819 1276.01 25.4819 M1276.01 20.5167 Q1283.65 20.5167 1288.01 25.4819 Q1292.37 30.4472 1292.37 39.2318 Q1292.37 47.9847 1288.01 52.9818 Q1283.65 57.947 1276.01 57.947 Q1268.34 57.947 1263.98 52.9818 Q1259.65 47.9847 1259.65 39.2318 Q1259.65 30.4472 1263.98 25.4819 Q1268.34 20.5167 1276.01 20.5167 Z" fill="#000000" fill-rule="nonzero" fill-opacity="1" /><path clip-path="url(#clip370)" d="M1320.12 7.4988 L1320.12 12.3686 L1314.52 12.3686 Q1311.37 12.3686 1310.13 13.6417 Q1308.92 14.9149 1308.92 18.225 L1308.92 21.376 L1318.56 21.376 L1318.56 25.9275 L1308.92 25.9275 L1308.92 57.024 L1303.03 57.024 L1303.03 25.9275 L1297.43 25.9275 L1297.43 21.376 L1303.03 21.376 L1303.03 18.8934 Q1303.03 12.9415 1305.8 10.2361 Q1308.57 7.4988 1314.58 7.4988 L1320.12 7.4988 Z" fill="#000000" fill-rule="nonzero" fill-opacity="1" /><path clip-path="url(#clip370)" d="M1351.54 11.2546 L1351.54 21.376 L1363.6 21.376 L1363.6 25.9275 L1351.54 25.9275 L1351.54 45.2793 Q1351.54 49.6398 1352.72 50.8811 Q1353.92 52.1224 1357.59 52.1224 L1363.6 52.1224 L1363.6 57.024 L1357.59 57.024 Q1350.81 57.024 1348.23 54.5095 Q1345.65 51.9633 1345.65 45.2793 L1345.65 25.9275 L1341.35 25.9275 L1341.35 21.376 L1345.65 21.376 L1345.65 11.2546 L1351.54 11.2546 Z" fill="#000000" fill-rule="nonzero" fill-opacity="1" /><path clip-path="url(#clip370)" d="M1400.94 35.5079 L1400.94 57.024 L1395.08 57.024 L1395.08 35.6989 Q1395.08 30.6381 1393.11 28.1237 Q1391.13 25.6092 1387.19 25.6092 Q1382.44 25.6092 1379.71 28.6329 Q1376.97 31.6567 1376.97 36.8765 L1376.97 57.024 L1371.08 57.024 L1371.08 7.4988 L1376.97 7.4988 L1376.97 26.9142 Q1379.07 23.6995 1381.9 22.1081 Q1384.77 20.5167 1388.49 20.5167 Q1394.63 20.5167 1397.78 24.3361 Q1400.94 28.1237 1400.94 35.5079 Z" fill="#000000" fill-rule="nonzero" fill-opacity="1" /><path clip-path="url(#clip370)" d="M1443.11 37.7359 L1443.11 40.6005 L1416.18 40.6005 Q1416.56 46.6479 1419.81 49.8308 Q1423.09 52.9818 1428.91 52.9818 Q1432.29 52.9818 1435.44 52.1542 Q1438.62 51.3267 1441.74 49.6716 L1441.74 55.2098 Q1438.59 56.5466 1435.28 57.2468 Q1431.97 57.947 1428.56 57.947 Q1420.03 57.947 1415.04 52.9818 Q1410.07 48.0165 1410.07 39.5501 Q1410.07 30.7973 1414.78 25.6729 Q1419.52 20.5167 1427.54 20.5167 Q1434.74 20.5167 1438.91 25.1636 Q1443.11 29.7788 1443.11 37.7359 M1437.25 36.0172 Q1437.19 31.2111 1434.55 28.3465 Q1431.94 25.4819 1427.61 25.4819 Q1422.71 25.4819 1419.75 28.251 Q1416.82 31.0201 1416.37 36.049 L1437.25 36.0172 Z" fill="#000000" fill-rule="nonzero" fill-opacity="1" /><path clip-path="url(#clip370)" d="M1496.17 22.4264 L1496.17 27.9645 Q1493.68 26.6914 1491.01 26.0548 Q1488.34 25.4183 1485.47 25.4183 Q1481.11 25.4183 1478.92 26.7551 Q1476.75 28.0919 1476.75 30.7655 Q1476.75 32.8025 1478.31 33.9801 Q1479.87 35.126 1484.58 36.1763 L1486.59 36.6219 Q1492.82 37.9587 1495.43 40.4095 Q1498.08 42.8285 1498.08 47.189 Q1498.08 52.1542 1494.13 55.0506 Q1490.21 57.947 1483.34 57.947 Q1480.48 57.947 1477.36 57.3741 Q1474.27 56.833 1470.83 55.719 L1470.83 49.6716 Q1474.08 51.3585 1477.23 52.2179 Q1480.38 53.0454 1483.47 53.0454 Q1487.6 53.0454 1489.83 51.645 Q1492.06 50.2127 1492.06 47.6346 Q1492.06 45.2474 1490.44 43.9743 Q1488.85 42.7012 1483.4 41.5235 L1481.37 41.0461 Q1475.92 39.9002 1473.5 37.5449 Q1471.09 35.1578 1471.09 31.0201 Q1471.09 25.9912 1474.65 23.2539 Q1478.22 20.5167 1484.77 20.5167 Q1488.02 20.5167 1490.88 20.9941 Q1493.75 21.4715 1496.17 22.4264 Z" fill="#000000" fill-rule="nonzero" fill-opacity="1" /><path clip-path="url(#clip370)" d="M1537.03 35.5079 L1537.03 57.024 L1531.18 57.024 L1531.18 35.6989 Q1531.18 30.6381 1529.2 28.1237 Q1527.23 25.6092 1523.28 25.6092 Q1518.54 25.6092 1515.8 28.6329 Q1513.07 31.6567 1513.07 36.8765 L1513.07 57.024 L1507.18 57.024 L1507.18 21.376 L1513.07 21.376 L1513.07 26.9142 Q1515.17 23.6995 1518 22.1081 Q1520.87 20.5167 1524.59 20.5167 Q1530.73 20.5167 1533.88 24.3361 Q1537.03 28.1237 1537.03 35.5079 Z" fill="#000000" fill-rule="nonzero" fill-opacity="1" /><path clip-path="url(#clip370)" d="M1564.92 39.1045 Q1557.82 39.1045 1555.08 40.7278 Q1552.34 42.351 1552.34 46.266 Q1552.34 49.3852 1554.38 51.2312 Q1556.45 53.0454 1559.98 53.0454 Q1564.85 53.0454 1567.78 49.608 Q1570.74 46.1386 1570.74 40.4095 L1570.74 39.1045 L1564.92 39.1045 M1576.6 36.6856 L1576.6 57.024 L1570.74 57.024 L1570.74 51.6131 Q1568.74 54.8597 1565.74 56.4193 Q1562.75 57.947 1558.42 57.947 Q1552.95 57.947 1549.7 54.8915 Q1546.49 51.8041 1546.49 46.6479 Q1546.49 40.6323 1550.5 37.5768 Q1554.54 34.5212 1562.53 34.5212 L1570.74 34.5212 L1570.74 33.9483 Q1570.74 29.9061 1568.07 27.7099 Q1565.43 25.4819 1560.62 25.4819 Q1557.56 25.4819 1554.67 26.214 Q1551.77 26.946 1549.1 28.4101 L1549.1 22.9993 Q1552.31 21.758 1555.34 21.1532 Q1558.36 20.5167 1561.22 20.5167 Q1568.96 20.5167 1572.78 24.5271 Q1576.6 28.5375 1576.6 36.6856 Z" fill="#000000" fill-rule="nonzero" fill-opacity="1" /><path clip-path="url(#clip370)" d="M1594.33 51.6768 L1594.33 70.583 L1588.44 70.583 L1588.44 21.376 L1594.33 21.376 L1594.33 26.7869 Q1596.17 23.604 1598.97 22.0763 Q1601.81 20.5167 1605.72 20.5167 Q1612.21 20.5167 1616.26 25.6729 Q1620.33 30.8291 1620.33 39.2318 Q1620.33 47.6346 1616.26 52.7908 Q1612.21 57.947 1605.72 57.947 Q1601.81 57.947 1598.97 56.4193 Q1596.17 54.8597 1594.33 51.6768 M1614.25 39.2318 Q1614.25 32.7707 1611.58 29.1104 Q1608.94 25.4183 1604.29 25.4183 Q1599.64 25.4183 1596.97 29.1104 Q1594.33 32.7707 1594.33 39.2318 Q1594.33 45.693 1596.97 49.3852 Q1599.64 53.0454 1604.29 53.0454 Q1608.94 53.0454 1611.58 49.3852 Q1614.25 45.693 1614.25 39.2318 Z" fill="#000000" fill-rule="nonzero" fill-opacity="1" /><path clip-path="url(#clip370)" d="M1652.76 22.4264 L1652.76 27.9645 Q1650.28 26.6914 1647.61 26.0548 Q1644.93 25.4183 1642.07 25.4183 Q1637.71 25.4183 1635.51 26.7551 Q1633.35 28.0919 1633.35 30.7655 Q1633.35 32.8025 1634.91 33.9801 Q1636.47 35.126 1641.18 36.1763 L1643.18 36.6219 Q1649.42 37.9587 1652.03 40.4095 Q1654.67 42.8285 1654.67 47.189 Q1654.67 52.1542 1650.73 55.0506 Q1646.81 57.947 1639.94 57.947 Q1637.07 57.947 1633.95 57.3741 Q1630.87 56.833 1627.43 55.719 L1627.43 49.6716 Q1630.67 51.3585 1633.83 52.2179 Q1636.98 53.0454 1640.06 53.0454 Q1644.2 53.0454 1646.43 51.645 Q1648.66 50.2127 1648.66 47.6346 Q1648.66 45.2474 1647.03 43.9743 Q1645.44 42.7012 1640 41.5235 L1637.96 41.0461 Q1632.52 39.9002 1630.1 37.5449 Q1627.68 35.1578 1627.68 31.0201 Q1627.68 25.9912 1631.25 23.2539 Q1634.81 20.5167 1641.37 20.5167 Q1644.61 20.5167 1647.48 20.9941 Q1650.34 21.4715 1652.76 22.4264 Z" fill="#000000" fill-rule="nonzero" fill-opacity="1" /><path clip-path="url(#clip370)" d="M1693.63 35.5079 L1693.63 57.024 L1687.77 57.024 L1687.77 35.6989 Q1687.77 30.6381 1685.8 28.1237 Q1683.83 25.6092 1679.88 25.6092 Q1675.14 25.6092 1672.4 28.6329 Q1669.66 31.6567 1669.66 36.8765 L1669.66 57.024 L1663.78 57.024 L1663.78 7.4988 L1669.66 7.4988 L1669.66 26.9142 Q1671.76 23.6995 1674.6 22.1081 Q1677.46 20.5167 1681.19 20.5167 Q1687.33 20.5167 1690.48 24.3361 Q1693.63 28.1237 1693.63 35.5079 Z" fill="#000000" fill-rule="nonzero" fill-opacity="1" /><path clip-path="url(#clip370)" d="M1719.13 25.4819 Q1714.41 25.4819 1711.68 29.174 Q1708.94 32.8343 1708.94 39.2318 Q1708.94 45.6294 1711.65 49.3215 Q1714.38 52.9818 1719.13 52.9818 Q1723.8 52.9818 1726.54 49.2897 Q1729.28 45.5976 1729.28 39.2318 Q1729.28 32.898 1726.54 29.2059 Q1723.8 25.4819 1719.13 25.4819 M1719.13 20.5167 Q1726.76 20.5167 1731.12 25.4819 Q1735.49 30.4472 1735.49 39.2318 Q1735.49 47.9847 1731.12 52.9818 Q1726.76 57.947 1719.13 57.947 Q1711.45 57.947 1707.09 52.9818 Q1702.77 47.9847 1702.77 39.2318 Q1702.77 30.4472 1707.09 25.4819 Q1711.45 20.5167 1719.13 20.5167 Z" fill="#000000" fill-rule="nonzero" fill-opacity="1" /><path clip-path="url(#clip370)" d="M1750.99 11.2546 L1750.99 21.376 L1763.05 21.376 L1763.05 25.9275 L1750.99 25.9275 L1750.99 45.2793 Q1750.99 49.6398 1752.16 50.8811 Q1753.37 52.1224 1757.03 52.1224 L1763.05 52.1224 L1763.05 57.024 L1757.03 57.024 Q1750.25 57.024 1747.68 54.5095 Q1745.1 51.9633 1745.1 45.2793 L1745.1 25.9275 L1740.8 25.9275 L1740.8 21.376 L1745.1 21.376 L1745.1 11.2546 L1750.99 11.2546 Z" fill="#000000" fill-rule="nonzero" fill-opacity="1" /><path clip-path="url(#clip370)" d="M1793.48 22.4264 L1793.48 27.9645 Q1790.99 26.6914 1788.32 26.0548 Q1785.65 25.4183 1782.78 25.4183 Q1778.42 25.4183 1776.23 26.7551 Q1774.06 28.0919 1774.06 30.7655 Q1774.06 32.8025 1775.62 33.9801 Q1777.18 35.126 1781.89 36.1763 L1783.9 36.6219 Q1790.13 37.9587 1792.74 40.4095 Q1795.39 42.8285 1795.39 47.189 Q1795.39 52.1542 1791.44 55.0506 Q1787.53 57.947 1780.65 57.947 Q1777.79 57.947 1774.67 57.3741 Q1771.58 56.833 1768.14 55.719 L1768.14 49.6716 Q1771.39 51.3585 1774.54 52.2179 Q1777.69 53.0454 1780.78 53.0454 Q1784.92 53.0454 1787.14 51.645 Q1789.37 50.2127 1789.37 47.6346 Q1789.37 45.2474 1787.75 43.9743 Q1786.16 42.7012 1780.71 41.5235 L1778.68 41.0461 Q1773.23 39.9002 1770.82 37.5449 Q1768.4 35.1578 1768.4 31.0201 Q1768.4 25.9912 1771.96 23.2539 Q1775.53 20.5167 1782.08 20.5167 Q1785.33 20.5167 1788.19 20.9941 Q1791.06 21.4715 1793.48 22.4264 Z" fill="#000000" fill-rule="nonzero" fill-opacity="1" /><circle clip-path="url(#clip371)" cx="242.642" cy="1328.13" r="14.4" fill="#009af9" fill-rule="evenodd" fill-opacity="1" stroke="#000000" stroke-opacity="1" stroke-width="3.2"/>
<circle clip-path="url(#clip371)" cx="242.642" cy="1447.51" r="14.4" fill="#e26f46" fill-rule="evenodd" fill-opacity="1" stroke="#000000" stroke-opacity="1" stroke-width="3.2"/>
<circle clip-path="url(#clip371)" cx="242.642" cy="149.454" r="14.4" fill="#3da44d" fill-rule="evenodd" fill-opacity="1" stroke="#000000" stroke-opacity="1" stroke-width="3.2"/>
<path clip-path="url(#clip370)" d="M1508.97 415.577 L2280.37 415.577 L2280.37 156.377 L1508.97 156.377  Z" fill="#ffffff" fill-rule="evenodd" fill-opacity="1"/>
<polyline clip-path="url(#clip370)" style="stroke:#000000; stroke-linecap:round; stroke-linejoin:round; stroke-width:4; stroke-opacity:1; fill:none" points="1508.97,415.577 2280.37,415.577 2280.37,156.377 1508.97,156.377 1508.97,415.577 "/>
<polyline clip-path="url(#clip370)" style="stroke:#009af9; stroke-linecap:round; stroke-linejoin:round; stroke-width:5; stroke-opacity:1; fill:none" points="1533.1,221.177 1677.87,221.177 "/>
<circle clip-path="url(#clip370)" cx="1605.49" cy="221.177" r="16.0857" fill="#009af9" fill-rule="evenodd" fill-opacity="1" stroke="#000000" stroke-opacity="1" stroke-width="5.68889"/>
<path clip-path="url(#clip370)" d="M1729.81 192.184 L1729.81 197.884 Q1726.48 196.292 1723.53 195.511 Q1720.58 194.73 1717.83 194.73 Q1713.05 194.73 1710.45 196.582 Q1707.87 198.433 1707.87 201.848 Q1707.87 204.712 1709.58 206.188 Q1711.32 207.635 1716.12 208.532 L1719.65 209.255 Q1726.19 210.499 1729.29 213.653 Q1732.41 216.778 1732.41 222.044 Q1732.41 228.323 1728.19 231.564 Q1723.99 234.805 1715.86 234.805 Q1712.79 234.805 1709.32 234.11 Q1705.88 233.416 1702.17 232.056 L1702.17 226.038 Q1705.73 228.034 1709.15 229.047 Q1712.56 230.059 1715.86 230.059 Q1720.87 230.059 1723.59 228.092 Q1726.31 226.124 1726.31 222.479 Q1726.31 219.296 1724.34 217.502 Q1722.4 215.708 1717.94 214.811 L1714.38 214.116 Q1707.85 212.814 1704.92 210.036 Q1702 207.259 1702 202.311 Q1702 196.582 1706.02 193.283 Q1710.07 189.984 1717.16 189.984 Q1720.2 189.984 1723.35 190.534 Q1726.51 191.084 1729.81 192.184 Z" fill="#000000" fill-rule="nonzero" fill-opacity="1" /><path clip-path="url(#clip370)" d="M1741.29 201.558 L1746.62 201.558 L1746.62 233.966 L1741.29 233.966 L1741.29 201.558 M1741.29 188.943 L1746.62 188.943 L1746.62 195.685 L1741.29 195.685 L1741.29 188.943 Z" fill="#000000" fill-rule="nonzero" fill-opacity="1" /><path clip-path="url(#clip370)" d="M1784.7 214.406 L1784.7 233.966 L1779.37 233.966 L1779.37 214.579 Q1779.37 209.979 1777.58 207.693 Q1775.78 205.407 1772.2 205.407 Q1767.89 205.407 1765.4 208.156 Q1762.91 210.904 1762.91 215.65 L1762.91 233.966 L1757.56 233.966 L1757.56 201.558 L1762.91 201.558 L1762.91 206.593 Q1764.82 203.671 1767.39 202.224 Q1770 200.777 1773.38 200.777 Q1778.97 200.777 1781.83 204.249 Q1784.7 207.693 1784.7 214.406 Z" fill="#000000" fill-rule="nonzero" fill-opacity="1" /><path clip-path="url(#clip370)" d="M1816.64 217.386 Q1816.64 211.599 1814.24 208.416 Q1811.87 205.233 1807.56 205.233 Q1803.27 205.233 1800.87 208.416 Q1798.5 211.599 1798.5 217.386 Q1798.5 223.144 1800.87 226.327 Q1803.27 229.51 1807.56 229.51 Q1811.87 229.51 1814.24 226.327 Q1816.64 223.144 1816.64 217.386 M1821.96 229.944 Q1821.96 238.219 1818.29 242.241 Q1814.62 246.292 1807.03 246.292 Q1804.23 246.292 1801.74 245.858 Q1799.25 245.453 1796.91 244.585 L1796.91 239.405 Q1799.25 240.679 1801.54 241.286 Q1803.82 241.894 1806.2 241.894 Q1811.43 241.894 1814.04 239.145 Q1816.64 236.425 1816.64 230.899 L1816.64 228.266 Q1814.99 231.13 1812.42 232.548 Q1809.84 233.966 1806.25 233.966 Q1800.29 233.966 1796.65 229.423 Q1793 224.88 1793 217.386 Q1793 209.863 1796.65 205.32 Q1800.29 200.777 1806.25 200.777 Q1809.84 200.777 1812.42 202.195 Q1814.99 203.613 1816.64 206.477 L1816.64 201.558 L1821.96 201.558 L1821.96 229.944 Z" fill="#000000" fill-rule="nonzero" fill-opacity="1" /><path clip-path="url(#clip370)" d="M1832.38 221.176 L1832.38 201.558 L1837.71 201.558 L1837.71 220.974 Q1837.71 225.575 1839.5 227.889 Q1841.29 230.175 1844.88 230.175 Q1849.19 230.175 1851.68 227.426 Q1854.2 224.678 1854.2 219.932 L1854.2 201.558 L1859.52 201.558 L1859.52 233.966 L1854.2 233.966 L1854.2 228.989 Q1852.26 231.94 1849.68 233.387 Q1847.14 234.805 1843.75 234.805 Q1838.17 234.805 1835.28 231.333 Q1832.38 227.86 1832.38 221.176 M1845.78 200.777 L1845.78 200.777 Z" fill="#000000" fill-rule="nonzero" fill-opacity="1" /><path clip-path="url(#clip370)" d="M1870.49 188.943 L1875.81 188.943 L1875.81 233.966 L1870.49 233.966 L1870.49 188.943 Z" fill="#000000" fill-rule="nonzero" fill-opacity="1" /><path clip-path="url(#clip370)" d="M1901.68 217.675 Q1895.23 217.675 1892.74 219.151 Q1890.25 220.627 1890.25 224.186 Q1890.25 227.021 1892.1 228.7 Q1893.98 230.349 1897.2 230.349 Q1901.62 230.349 1904.29 227.224 Q1906.98 224.07 1906.98 218.862 L1906.98 217.675 L1901.68 217.675 M1912.3 215.476 L1912.3 233.966 L1906.98 233.966 L1906.98 229.047 Q1905.15 231.998 1902.43 233.416 Q1899.71 234.805 1895.78 234.805 Q1890.8 234.805 1887.85 232.027 Q1884.93 229.22 1884.93 224.533 Q1884.93 219.064 1888.57 216.286 Q1892.25 213.509 1899.51 213.509 L1906.98 213.509 L1906.98 212.988 Q1906.98 209.313 1904.55 207.317 Q1902.14 205.291 1897.77 205.291 Q1895 205.291 1892.36 205.957 Q1889.73 206.622 1887.3 207.953 L1887.3 203.034 Q1890.22 201.906 1892.97 201.356 Q1895.72 200.777 1898.32 200.777 Q1905.36 200.777 1908.83 204.423 Q1912.3 208.069 1912.3 215.476 Z" fill="#000000" fill-rule="nonzero" fill-opacity="1" /><path clip-path="url(#clip370)" d="M1942.05 206.535 Q1941.15 206.014 1940.08 205.783 Q1939.04 205.523 1937.76 205.523 Q1933.25 205.523 1930.82 208.474 Q1928.42 211.396 1928.42 216.894 L1928.42 233.966 L1923.06 233.966 L1923.06 201.558 L1928.42 201.558 L1928.42 206.593 Q1930.1 203.642 1932.79 202.224 Q1935.48 200.777 1939.33 200.777 Q1939.88 200.777 1940.54 200.864 Q1941.21 200.922 1942.02 201.067 L1942.05 206.535 Z" fill="#000000" fill-rule="nonzero" fill-opacity="1" /><path clip-path="url(#clip370)" d="M1977.84 233.966 L1961.34 190.766 L1967.45 190.766 L1981.14 227.137 L1994.85 190.766 L2000.93 190.766 L1984.46 233.966 L1977.84 233.966 Z" fill="#000000" fill-rule="nonzero" fill-opacity="1" /><path clip-path="url(#clip370)" d="M2017.13 217.675 Q2010.68 217.675 2008.19 219.151 Q2005.7 220.627 2005.7 224.186 Q2005.7 227.021 2007.55 228.7 Q2009.43 230.349 2012.65 230.349 Q2017.07 230.349 2019.74 227.224 Q2022.43 224.07 2022.43 218.862 L2022.43 217.675 L2017.13 217.675 M2027.75 215.476 L2027.75 233.966 L2022.43 233.966 L2022.43 229.047 Q2020.6 231.998 2017.88 233.416 Q2015.16 234.805 2011.23 234.805 Q2006.25 234.805 2003.3 232.027 Q2000.38 229.22 2000.38 224.533 Q2000.38 219.064 2004.02 216.286 Q2007.7 213.509 2014.96 213.509 L2022.43 213.509 L2022.43 212.988 Q2022.43 209.313 2020 207.317 Q2017.59 205.291 2013.23 205.291 Q2010.45 205.291 2007.81 205.957 Q2005.18 206.622 2002.75 207.953 L2002.75 203.034 Q2005.67 201.906 2008.42 201.356 Q2011.17 200.777 2013.78 200.777 Q2020.81 200.777 2024.28 204.423 Q2027.75 208.069 2027.75 215.476 Z" fill="#000000" fill-rule="nonzero" fill-opacity="1" /><path clip-path="url(#clip370)" d="M2038.72 188.943 L2044.04 188.943 L2044.04 233.966 L2038.72 233.966 L2038.72 188.943 Z" fill="#000000" fill-rule="nonzero" fill-opacity="1" /><path clip-path="url(#clip370)" d="M2086.58 205.291 Q2082.29 205.291 2079.8 208.648 Q2077.32 211.975 2077.32 217.791 Q2077.32 223.607 2079.78 226.963 Q2082.26 230.291 2086.58 230.291 Q2090.83 230.291 2093.32 226.935 Q2095.81 223.578 2095.81 217.791 Q2095.81 212.033 2093.32 208.676 Q2090.83 205.291 2086.58 205.291 M2086.58 200.777 Q2093.52 200.777 2097.48 205.291 Q2101.45 209.805 2101.45 217.791 Q2101.45 225.748 2097.48 230.291 Q2093.52 234.805 2086.58 234.805 Q2079.6 234.805 2075.64 230.291 Q2071.7 225.748 2071.7 217.791 Q2071.7 209.805 2075.64 205.291 Q2079.6 200.777 2086.58 200.777 Z" fill="#000000" fill-rule="nonzero" fill-opacity="1" /><path clip-path="url(#clip370)" d="M2126.68 188.943 L2126.68 193.37 L2121.59 193.37 Q2118.72 193.37 2117.59 194.527 Q2116.49 195.685 2116.49 198.694 L2116.49 201.558 L2125.26 201.558 L2125.26 205.696 L2116.49 205.696 L2116.49 233.966 L2111.14 233.966 L2111.14 205.696 L2106.05 205.696 L2106.05 201.558 L2111.14 201.558 L2111.14 199.302 Q2111.14 193.891 2113.66 191.431 Q2116.18 188.943 2121.65 188.943 L2126.68 188.943 Z" fill="#000000" fill-rule="nonzero" fill-opacity="1" /><path clip-path="url(#clip370)" d="M2170.71 211.656 Q2170.71 212.417 2170.5 213.91 Q2170.3 215.403 2169.8 217.57 Q2169.3 219.737 2168.57 222.02 Q2167.87 224.304 2166.76 226.588 Q2165.64 228.842 2164.33 230.628 Q2163.01 232.414 2161.16 233.527 Q2159.32 234.639 2157.24 234.639 Q2156.27 234.639 2155.34 234.493 Q2154.4 234.346 2153.23 233.878 Q2152.06 233.409 2151.21 232.648 Q2150.36 231.858 2149.78 230.452 Q2149.19 229.047 2149.19 227.202 Q2149.19 225.299 2149.89 222.752 Q2150.62 220.176 2152.62 214.906 Q2153.64 212.183 2153.64 210.69 Q2153.64 210.016 2153.49 209.606 Q2153.35 209.167 2153.05 209.021 Q2152.76 208.845 2152.59 208.816 Q2152.44 208.787 2152.15 208.787 Q2150.54 208.787 2148.9 210.455 Q2147.26 212.124 2146.09 216.223 Q2145.85 216.955 2145.71 217.131 Q2145.56 217.306 2145.12 217.306 Q2144.39 217.277 2144.39 216.692 Q2144.39 216.516 2144.59 215.843 Q2144.8 215.14 2145.18 214.086 Q2145.56 213.003 2146.23 211.89 Q2146.91 210.748 2147.73 209.753 Q2148.57 208.757 2149.78 208.113 Q2150.98 207.469 2152.32 207.469 Q2154.52 207.469 2155.86 208.904 Q2157.24 210.309 2157.24 212.388 Q2157.24 213.53 2156.51 215.374 Q2155.28 218.712 2154.72 220.322 Q2154.17 221.932 2153.58 224.216 Q2153.02 226.5 2153.02 228.081 Q2153.02 230.482 2154.14 231.887 Q2155.25 233.292 2157.48 233.292 Q2159.47 233.292 2161.25 231.858 Q2163.07 230.394 2164.27 228.315 Q2165.47 226.207 2166.38 223.865 Q2167.28 221.493 2167.69 219.707 Q2168.13 217.892 2168.13 217.043 Q2168.13 214.086 2166.11 212.154 Q2165.56 211.597 2165.35 211.246 Q2165.15 210.895 2165.15 210.338 Q2165.15 209.314 2166.05 208.406 Q2166.99 207.469 2168.07 207.469 Q2169.07 207.469 2169.89 208.465 Q2170.71 209.46 2170.71 211.656 Z" fill="#000000" fill-rule="nonzero" fill-opacity="1" /><polyline clip-path="url(#clip370)" style="stroke:#e26f46; stroke-linecap:round; stroke-linejoin:round; stroke-width:5; stroke-opacity:1; fill:none" points="1533.1,285.977 1677.87,285.977 "/>
<circle clip-path="url(#clip370)" cx="1605.49" cy="285.977" r="16.0857" fill="#e26f46" fill-rule="evenodd" fill-opacity="1" stroke="#000000" stroke-opacity="1" stroke-width="5.68889"/>
<path clip-path="url(#clip370)" d="M1729.81 256.984 L1729.81 262.684 Q1726.48 261.092 1723.53 260.311 Q1720.58 259.53 1717.83 259.53 Q1713.05 259.53 1710.45 261.382 Q1707.87 263.233 1707.87 266.648 Q1707.87 269.512 1709.58 270.988 Q1711.32 272.435 1716.12 273.332 L1719.65 274.055 Q1726.19 275.299 1729.29 278.453 Q1732.41 281.578 1732.41 286.844 Q1732.41 293.123 1728.19 296.364 Q1723.99 299.605 1715.86 299.605 Q1712.79 299.605 1709.32 298.91 Q1705.88 298.216 1702.17 296.856 L1702.17 290.838 Q1705.73 292.834 1709.15 293.847 Q1712.56 294.859 1715.86 294.859 Q1720.87 294.859 1723.59 292.892 Q1726.31 290.924 1726.31 287.279 Q1726.31 284.096 1724.34 282.302 Q1722.4 280.508 1717.94 279.611 L1714.38 278.916 Q1707.85 277.614 1704.92 274.836 Q1702 272.059 1702 267.111 Q1702 261.382 1706.02 258.083 Q1710.07 254.784 1717.16 254.784 Q1720.2 254.784 1723.35 255.334 Q1726.51 255.884 1729.81 256.984 Z" fill="#000000" fill-rule="nonzero" fill-opacity="1" /><path clip-path="url(#clip370)" d="M1741.29 266.358 L1746.62 266.358 L1746.62 298.766 L1741.29 298.766 L1741.29 266.358 M1741.29 253.743 L1746.62 253.743 L1746.62 260.485 L1741.29 260.485 L1741.29 253.743 Z" fill="#000000" fill-rule="nonzero" fill-opacity="1" /><path clip-path="url(#clip370)" d="M1784.7 279.206 L1784.7 298.766 L1779.37 298.766 L1779.37 279.379 Q1779.37 274.779 1777.58 272.493 Q1775.78 270.207 1772.2 270.207 Q1767.89 270.207 1765.4 272.956 Q1762.91 275.704 1762.91 280.45 L1762.91 298.766 L1757.56 298.766 L1757.56 266.358 L1762.91 266.358 L1762.91 271.393 Q1764.82 268.471 1767.39 267.024 Q1770 265.577 1773.38 265.577 Q1778.97 265.577 1781.83 269.049 Q1784.7 272.493 1784.7 279.206 Z" fill="#000000" fill-rule="nonzero" fill-opacity="1" /><path clip-path="url(#clip370)" d="M1816.64 282.186 Q1816.64 276.399 1814.24 273.216 Q1811.87 270.033 1807.56 270.033 Q1803.27 270.033 1800.87 273.216 Q1798.5 276.399 1798.5 282.186 Q1798.5 287.944 1800.87 291.127 Q1803.27 294.31 1807.56 294.31 Q1811.87 294.31 1814.24 291.127 Q1816.64 287.944 1816.64 282.186 M1821.96 294.744 Q1821.96 303.019 1818.29 307.041 Q1814.62 311.092 1807.03 311.092 Q1804.23 311.092 1801.74 310.658 Q1799.25 310.253 1796.91 309.385 L1796.91 304.205 Q1799.25 305.479 1801.54 306.086 Q1803.82 306.694 1806.2 306.694 Q1811.43 306.694 1814.04 303.945 Q1816.64 301.225 1816.64 295.699 L1816.64 293.066 Q1814.99 295.93 1812.42 297.348 Q1809.84 298.766 1806.25 298.766 Q1800.29 298.766 1796.65 294.223 Q1793 289.68 1793 282.186 Q1793 274.663 1796.65 270.12 Q1800.29 265.577 1806.25 265.577 Q1809.84 265.577 1812.42 266.995 Q1814.99 268.413 1816.64 271.277 L1816.64 266.358 L1821.96 266.358 L1821.96 294.744 Z" fill="#000000" fill-rule="nonzero" fill-opacity="1" /><path clip-path="url(#clip370)" d="M1832.38 285.976 L1832.38 266.358 L1837.71 266.358 L1837.71 285.774 Q1837.71 290.375 1839.5 292.689 Q1841.29 294.975 1844.88 294.975 Q1849.19 294.975 1851.68 292.226 Q1854.2 289.478 1854.2 284.732 L1854.2 266.358 L1859.52 266.358 L1859.52 298.766 L1854.2 298.766 L1854.2 293.789 Q1852.26 296.74 1849.68 298.187 Q1847.14 299.605 1843.75 299.605 Q1838.17 299.605 1835.28 296.133 Q1832.38 292.66 1832.38 285.976 M1845.78 265.577 L1845.78 265.577 Z" fill="#000000" fill-rule="nonzero" fill-opacity="1" /><path clip-path="url(#clip370)" d="M1870.49 253.743 L1875.81 253.743 L1875.81 298.766 L1870.49 298.766 L1870.49 253.743 Z" fill="#000000" fill-rule="nonzero" fill-opacity="1" /><path clip-path="url(#clip370)" d="M1901.68 282.475 Q1895.23 282.475 1892.74 283.951 Q1890.25 285.427 1890.25 288.986 Q1890.25 291.821 1892.1 293.5 Q1893.98 295.149 1897.2 295.149 Q1901.62 295.149 1904.29 292.024 Q1906.98 288.87 1906.98 283.662 L1906.98 282.475 L1901.68 282.475 M1912.3 280.276 L1912.3 298.766 L1906.98 298.766 L1906.98 293.847 Q1905.15 296.798 1902.43 298.216 Q1899.71 299.605 1895.78 299.605 Q1890.8 299.605 1887.85 296.827 Q1884.93 294.02 1884.93 289.333 Q1884.93 283.864 1888.57 281.086 Q1892.25 278.309 1899.51 278.309 L1906.98 278.309 L1906.98 277.788 Q1906.98 274.113 1904.55 272.117 Q1902.14 270.091 1897.77 270.091 Q1895 270.091 1892.36 270.757 Q1889.73 271.422 1887.3 272.753 L1887.3 267.834 Q1890.22 266.706 1892.97 266.156 Q1895.72 265.577 1898.32 265.577 Q1905.36 265.577 1908.83 269.223 Q1912.3 272.869 1912.3 280.276 Z" fill="#000000" fill-rule="nonzero" fill-opacity="1" /><path clip-path="url(#clip370)" d="M1942.05 271.335 Q1941.15 270.814 1940.08 270.583 Q1939.04 270.323 1937.76 270.323 Q1933.25 270.323 1930.82 273.274 Q1928.42 276.196 1928.42 281.694 L1928.42 298.766 L1923.06 298.766 L1923.06 266.358 L1928.42 266.358 L1928.42 271.393 Q1930.1 268.442 1932.79 267.024 Q1935.48 265.577 1939.33 265.577 Q1939.88 265.577 1940.54 265.664 Q1941.21 265.722 1942.02 265.867 L1942.05 271.335 Z" fill="#000000" fill-rule="nonzero" fill-opacity="1" /><path clip-path="url(#clip370)" d="M1977.84 298.766 L1961.34 255.566 L1967.45 255.566 L1981.14 291.937 L1994.85 255.566 L2000.93 255.566 L1984.46 298.766 L1977.84 298.766 Z" fill="#000000" fill-rule="nonzero" fill-opacity="1" /><path clip-path="url(#clip370)" d="M2017.13 282.475 Q2010.68 282.475 2008.19 283.951 Q2005.7 285.427 2005.7 288.986 Q2005.7 291.821 2007.55 293.5 Q2009.43 295.149 2012.65 295.149 Q2017.07 295.149 2019.74 292.024 Q2022.43 288.87 2022.43 283.662 L2022.43 282.475 L2017.13 282.475 M2027.75 280.276 L2027.75 298.766 L2022.43 298.766 L2022.43 293.847 Q2020.6 296.798 2017.88 298.216 Q2015.16 299.605 2011.23 299.605 Q2006.25 299.605 2003.3 296.827 Q2000.38 294.02 2000.38 289.333 Q2000.38 283.864 2004.02 281.086 Q2007.7 278.309 2014.96 278.309 L2022.43 278.309 L2022.43 277.788 Q2022.43 274.113 2020 272.117 Q2017.59 270.091 2013.23 270.091 Q2010.45 270.091 2007.81 270.757 Q2005.18 271.422 2002.75 272.753 L2002.75 267.834 Q2005.67 266.706 2008.42 266.156 Q2011.17 265.577 2013.78 265.577 Q2020.81 265.577 2024.28 269.223 Q2027.75 272.869 2027.75 280.276 Z" fill="#000000" fill-rule="nonzero" fill-opacity="1" /><path clip-path="url(#clip370)" d="M2038.72 253.743 L2044.04 253.743 L2044.04 298.766 L2038.72 298.766 L2038.72 253.743 Z" fill="#000000" fill-rule="nonzero" fill-opacity="1" /><path clip-path="url(#clip370)" d="M2086.58 270.091 Q2082.29 270.091 2079.8 273.448 Q2077.32 276.775 2077.32 282.591 Q2077.32 288.407 2079.78 291.763 Q2082.26 295.091 2086.58 295.091 Q2090.83 295.091 2093.32 291.735 Q2095.81 288.378 2095.81 282.591 Q2095.81 276.833 2093.32 273.476 Q2090.83 270.091 2086.58 270.091 M2086.58 265.577 Q2093.52 265.577 2097.48 270.091 Q2101.45 274.605 2101.45 282.591 Q2101.45 290.548 2097.48 295.091 Q2093.52 299.605 2086.58 299.605 Q2079.6 299.605 2075.64 295.091 Q2071.7 290.548 2071.7 282.591 Q2071.7 274.605 2075.64 270.091 Q2079.6 265.577 2086.58 265.577 Z" fill="#000000" fill-rule="nonzero" fill-opacity="1" /><path clip-path="url(#clip370)" d="M2126.68 253.743 L2126.68 258.17 L2121.59 258.17 Q2118.72 258.17 2117.59 259.327 Q2116.49 260.485 2116.49 263.494 L2116.49 266.358 L2125.26 266.358 L2125.26 270.496 L2116.49 270.496 L2116.49 298.766 L2111.14 298.766 L2111.14 270.496 L2106.05 270.496 L2106.05 266.358 L2111.14 266.358 L2111.14 264.102 Q2111.14 258.691 2113.66 256.231 Q2116.18 253.743 2121.65 253.743 L2126.68 253.743 Z" fill="#000000" fill-rule="nonzero" fill-opacity="1" /><path clip-path="url(#clip370)" d="M2184.09 276.456 Q2184.09 278.71 2182.86 283.688 Q2181.63 288.665 2180.14 292.061 Q2176.95 299.439 2171.44 299.439 Q2170.77 299.439 2170.09 299.381 Q2169.45 299.322 2168.48 299.058 Q2167.52 298.795 2166.73 298.385 Q2165.94 297.946 2165.15 297.126 Q2164.38 296.306 2163.95 295.223 Q2161.52 299.439 2157.71 299.439 Q2154.02 299.439 2151.59 297.565 Q2149.19 295.692 2149.19 291.856 Q2149.19 290.129 2149.89 287.581 Q2150.59 285.034 2152.56 279.764 Q2153.64 277.041 2153.64 275.548 Q2153.64 274.875 2153.49 274.436 Q2153.35 273.996 2153.05 273.85 Q2152.79 273.674 2152.62 273.645 Q2152.44 273.587 2152.15 273.587 Q2150.39 273.587 2148.81 275.373 Q2147.23 277.129 2146.09 281.023 Q2145.85 281.755 2145.71 281.931 Q2145.56 282.106 2145.12 282.106 Q2144.39 282.077 2144.39 281.492 Q2144.39 281.257 2144.65 280.35 Q2144.91 279.413 2145.53 278.037 Q2146.17 276.632 2147.05 275.373 Q2147.93 274.084 2149.31 273.177 Q2150.71 272.269 2152.32 272.269 Q2154.49 272.269 2155.86 273.704 Q2157.24 275.138 2157.24 277.188 Q2157.24 277.773 2157.09 278.417 Q2156.95 279.032 2156.8 279.442 Q2156.68 279.823 2156.22 281.023 Q2154.28 286.088 2153.67 288.518 Q2153.08 290.948 2153.08 292.647 Q2153.08 293.203 2153.11 293.642 Q2153.14 294.081 2153.38 294.989 Q2153.64 295.896 2154.11 296.511 Q2154.58 297.097 2155.54 297.595 Q2156.54 298.092 2157.89 298.092 Q2161.25 298.092 2163.42 293.056 Q2163.36 292.764 2163.36 292.002 Q2163.36 290.304 2163.89 288.021 Q2164.03 287.494 2164.88 284.127 Q2165.73 280.73 2166.46 277.773 Q2167.22 274.787 2167.31 274.611 Q2167.61 273.792 2168.25 273.352 Q2168.89 272.913 2169.54 272.913 Q2170.27 272.913 2170.77 273.352 Q2171.27 273.792 2171.27 274.553 Q2171.27 274.699 2171.09 275.373 Q2170.94 276.017 2170.71 276.983 Q2170.47 277.949 2170.36 278.447 L2167.84 288.518 Q2167.2 290.861 2167.2 292.881 Q2167.2 295.428 2168.34 296.775 Q2169.48 298.092 2171.62 298.092 Q2175.63 298.092 2178.2 292.822 Q2179.38 290.539 2180.43 286.967 Q2181.51 283.395 2181.51 281.843 Q2181.51 278.915 2179.35 276.749 Q2178.88 276.339 2178.67 276.017 Q2178.47 275.665 2178.47 275.138 Q2178.47 274.143 2179.4 273.206 Q2180.34 272.269 2181.45 272.269 Q2182.45 272.269 2183.27 273.265 Q2184.09 274.231 2184.09 276.456 Z" fill="#000000" fill-rule="nonzero" fill-opacity="1" /><polyline clip-path="url(#clip370)" style="stroke:#3da44d; stroke-linecap:round; stroke-linejoin:round; stroke-width:5; stroke-opacity:1; fill:none" points="1533.1,350.777 1677.87,350.777 "/>
<circle clip-path="url(#clip370)" cx="1605.49" cy="350.777" r="16.0857" fill="#3da44d" fill-rule="evenodd" fill-opacity="1" stroke="#000000" stroke-opacity="1" stroke-width="5.68889"/>
<path clip-path="url(#clip370)" d="M1729.81 323.846 L1729.81 329.546 Q1726.48 327.955 1723.53 327.174 Q1720.58 326.392 1717.83 326.392 Q1713.05 326.392 1710.45 328.244 Q1707.87 330.096 1707.87 333.51 Q1707.87 336.375 1709.58 337.851 Q1711.32 339.297 1716.12 340.194 L1719.65 340.918 Q1726.19 342.162 1729.29 345.316 Q1732.41 348.441 1732.41 353.707 Q1732.41 359.986 1728.19 363.227 Q1723.99 366.467 1715.86 366.467 Q1712.79 366.467 1709.32 365.773 Q1705.88 365.078 1702.17 363.719 L1702.17 357.7 Q1705.73 359.697 1709.15 360.709 Q1712.56 361.722 1715.86 361.722 Q1720.87 361.722 1723.59 359.754 Q1726.31 357.787 1726.31 354.141 Q1726.31 350.958 1724.34 349.164 Q1722.4 347.37 1717.94 346.473 L1714.38 345.779 Q1707.85 344.477 1704.92 341.699 Q1702 338.921 1702 333.973 Q1702 328.244 1706.02 324.946 Q1710.07 321.647 1717.16 321.647 Q1720.2 321.647 1723.35 322.197 Q1726.51 322.746 1729.81 323.846 Z" fill="#000000" fill-rule="nonzero" fill-opacity="1" /><path clip-path="url(#clip370)" d="M1741.29 333.221 L1746.62 333.221 L1746.62 365.628 L1741.29 365.628 L1741.29 333.221 M1741.29 320.605 L1746.62 320.605 L1746.62 327.347 L1741.29 327.347 L1741.29 320.605 Z" fill="#000000" fill-rule="nonzero" fill-opacity="1" /><path clip-path="url(#clip370)" d="M1784.7 346.068 L1784.7 365.628 L1779.37 365.628 L1779.37 346.242 Q1779.37 341.641 1777.58 339.355 Q1775.78 337.069 1772.2 337.069 Q1767.89 337.069 1765.4 339.818 Q1762.91 342.567 1762.91 347.312 L1762.91 365.628 L1757.56 365.628 L1757.56 333.221 L1762.91 333.221 L1762.91 338.256 Q1764.82 335.333 1767.39 333.886 Q1770 332.44 1773.38 332.44 Q1778.97 332.44 1781.83 335.912 Q1784.7 339.355 1784.7 346.068 Z" fill="#000000" fill-rule="nonzero" fill-opacity="1" /><path clip-path="url(#clip370)" d="M1816.64 349.048 Q1816.64 343.261 1814.24 340.079 Q1811.87 336.896 1807.56 336.896 Q1803.27 336.896 1800.87 340.079 Q1798.5 343.261 1798.5 349.048 Q1798.5 354.807 1800.87 357.989 Q1803.27 361.172 1807.56 361.172 Q1811.87 361.172 1814.24 357.989 Q1816.64 354.807 1816.64 349.048 M1821.96 361.606 Q1821.96 369.882 1818.29 373.904 Q1814.62 377.955 1807.03 377.955 Q1804.23 377.955 1801.74 377.521 Q1799.25 377.115 1796.91 376.247 L1796.91 371.068 Q1799.25 372.341 1801.54 372.949 Q1803.82 373.556 1806.2 373.556 Q1811.43 373.556 1814.04 370.808 Q1816.64 368.088 1816.64 362.561 L1816.64 359.928 Q1814.99 362.793 1812.42 364.21 Q1809.84 365.628 1806.25 365.628 Q1800.29 365.628 1796.65 361.085 Q1793 356.543 1793 349.048 Q1793 341.525 1796.65 336.983 Q1800.29 332.44 1806.25 332.44 Q1809.84 332.44 1812.42 333.858 Q1814.99 335.275 1816.64 338.14 L1816.64 333.221 L1821.96 333.221 L1821.96 361.606 Z" fill="#000000" fill-rule="nonzero" fill-opacity="1" /><path clip-path="url(#clip370)" d="M1832.38 352.839 L1832.38 333.221 L1837.71 333.221 L1837.71 352.636 Q1837.71 357.237 1839.5 359.552 Q1841.29 361.838 1844.88 361.838 Q1849.19 361.838 1851.68 359.089 Q1854.2 356.34 1854.2 351.595 L1854.2 333.221 L1859.52 333.221 L1859.52 365.628 L1854.2 365.628 L1854.2 360.651 Q1852.26 363.603 1849.68 365.05 Q1847.14 366.467 1843.75 366.467 Q1838.17 366.467 1835.28 362.995 Q1832.38 359.523 1832.38 352.839 M1845.78 332.44 L1845.78 332.44 Z" fill="#000000" fill-rule="nonzero" fill-opacity="1" /><path clip-path="url(#clip370)" d="M1870.49 320.605 L1875.81 320.605 L1875.81 365.628 L1870.49 365.628 L1870.49 320.605 Z" fill="#000000" fill-rule="nonzero" fill-opacity="1" /><path clip-path="url(#clip370)" d="M1901.68 349.338 Q1895.23 349.338 1892.74 350.813 Q1890.25 352.289 1890.25 355.848 Q1890.25 358.684 1892.1 360.362 Q1893.98 362.011 1897.2 362.011 Q1901.62 362.011 1904.29 358.886 Q1906.98 355.732 1906.98 350.524 L1906.98 349.338 L1901.68 349.338 M1912.3 347.139 L1912.3 365.628 L1906.98 365.628 L1906.98 360.709 Q1905.15 363.661 1902.43 365.078 Q1899.71 366.467 1895.78 366.467 Q1890.8 366.467 1887.85 363.69 Q1884.93 360.883 1884.93 356.195 Q1884.93 350.727 1888.57 347.949 Q1892.25 345.171 1899.51 345.171 L1906.98 345.171 L1906.98 344.65 Q1906.98 340.976 1904.55 338.979 Q1902.14 336.954 1897.77 336.954 Q1895 336.954 1892.36 337.619 Q1889.73 338.285 1887.3 339.616 L1887.3 334.697 Q1890.22 333.568 1892.97 333.018 Q1895.72 332.44 1898.32 332.44 Q1905.36 332.44 1908.83 336.086 Q1912.3 339.731 1912.3 347.139 Z" fill="#000000" fill-rule="nonzero" fill-opacity="1" /><path clip-path="url(#clip370)" d="M1942.05 338.198 Q1941.15 337.677 1940.08 337.445 Q1939.04 337.185 1937.76 337.185 Q1933.25 337.185 1930.82 340.136 Q1928.42 343.059 1928.42 348.557 L1928.42 365.628 L1923.06 365.628 L1923.06 333.221 L1928.42 333.221 L1928.42 338.256 Q1930.1 335.304 1932.79 333.886 Q1935.48 332.44 1939.33 332.44 Q1939.88 332.44 1940.54 332.527 Q1941.21 332.584 1942.02 332.729 L1942.05 338.198 Z" fill="#000000" fill-rule="nonzero" fill-opacity="1" /><path clip-path="url(#clip370)" d="M1977.84 365.628 L1961.34 322.428 L1967.45 322.428 L1981.14 358.8 L1994.85 322.428 L2000.93 322.428 L1984.46 365.628 L1977.84 365.628 Z" fill="#000000" fill-rule="nonzero" fill-opacity="1" /><path clip-path="url(#clip370)" d="M2017.13 349.338 Q2010.68 349.338 2008.19 350.813 Q2005.7 352.289 2005.7 355.848 Q2005.7 358.684 2007.55 360.362 Q2009.43 362.011 2012.65 362.011 Q2017.07 362.011 2019.74 358.886 Q2022.43 355.732 2022.43 350.524 L2022.43 349.338 L2017.13 349.338 M2027.75 347.139 L2027.75 365.628 L2022.43 365.628 L2022.43 360.709 Q2020.6 363.661 2017.88 365.078 Q2015.16 366.467 2011.23 366.467 Q2006.25 366.467 2003.3 363.69 Q2000.38 360.883 2000.38 356.195 Q2000.38 350.727 2004.02 347.949 Q2007.7 345.171 2014.96 345.171 L2022.43 345.171 L2022.43 344.65 Q2022.43 340.976 2020 338.979 Q2017.59 336.954 2013.23 336.954 Q2010.45 336.954 2007.81 337.619 Q2005.18 338.285 2002.75 339.616 L2002.75 334.697 Q2005.67 333.568 2008.42 333.018 Q2011.17 332.44 2013.78 332.44 Q2020.81 332.44 2024.28 336.086 Q2027.75 339.731 2027.75 347.139 Z" fill="#000000" fill-rule="nonzero" fill-opacity="1" /><path clip-path="url(#clip370)" d="M2038.72 320.605 L2044.04 320.605 L2044.04 365.628 L2038.72 365.628 L2038.72 320.605 Z" fill="#000000" fill-rule="nonzero" fill-opacity="1" /><path clip-path="url(#clip370)" d="M2086.58 336.954 Q2082.29 336.954 2079.8 340.31 Q2077.32 343.638 2077.32 349.454 Q2077.32 355.269 2079.78 358.626 Q2082.26 361.953 2086.58 361.953 Q2090.83 361.953 2093.32 358.597 Q2095.81 355.241 2095.81 349.454 Q2095.81 343.695 2093.32 340.339 Q2090.83 336.954 2086.58 336.954 M2086.58 332.44 Q2093.52 332.44 2097.48 336.954 Q2101.45 341.467 2101.45 349.454 Q2101.45 357.411 2097.48 361.953 Q2093.52 366.467 2086.58 366.467 Q2079.6 366.467 2075.64 361.953 Q2071.7 357.411 2071.7 349.454 Q2071.7 341.467 2075.64 336.954 Q2079.6 332.44 2086.58 332.44 Z" fill="#000000" fill-rule="nonzero" fill-opacity="1" /><path clip-path="url(#clip370)" d="M2126.68 320.605 L2126.68 325.032 L2121.59 325.032 Q2118.72 325.032 2117.59 326.19 Q2116.49 327.347 2116.49 330.356 L2116.49 333.221 L2125.26 333.221 L2125.26 337.359 L2116.49 337.359 L2116.49 365.628 L2111.14 365.628 L2111.14 337.359 L2106.05 337.359 L2106.05 333.221 L2111.14 333.221 L2111.14 330.964 Q2111.14 325.553 2113.66 323.094 Q2116.18 320.605 2121.65 320.605 L2126.68 320.605 Z" fill="#000000" fill-rule="nonzero" fill-opacity="1" /><path clip-path="url(#clip370)" d="M2174.28 327.479 Q2174.28 329.089 2173.26 330.085 Q2172.26 331.08 2171 331.08 Q2170.09 331.08 2169.42 330.524 Q2168.78 329.968 2168.78 329.001 Q2168.78 328.006 2169.54 326.952 Q2170.3 325.898 2172.03 325.752 Q2170.88 324.668 2169.07 324.668 Q2168.16 324.668 2167.4 325.254 Q2166.67 325.81 2166.26 326.718 Q2165.82 327.655 2164.82 332.954 Q2164.5 334.681 2164.21 336.35 Q2163.92 338.019 2163.57 339.776 L2168.54 339.776 Q2169.19 339.776 2169.45 339.805 Q2169.71 339.834 2169.92 339.981 Q2170.15 340.127 2170.15 340.449 Q2170.15 341.269 2169.77 341.474 Q2169.42 341.649 2168.37 341.649 L2163.21 341.649 L2159.61 360.651 Q2159.52 361.207 2159.14 362.964 Q2158.79 364.691 2157.94 367.531 Q2157.09 370.401 2156.25 372.099 Q2155.78 373.065 2155.16 373.972 Q2154.58 374.909 2153.73 375.846 Q2152.88 376.783 2151.77 377.339 Q2150.65 377.925 2149.48 377.925 Q2147.49 377.925 2145.94 376.812 Q2144.39 375.7 2144.39 373.797 Q2144.39 372.186 2145.38 371.191 Q2146.41 370.196 2147.67 370.196 Q2148.57 370.196 2149.22 370.752 Q2149.89 371.308 2149.89 372.274 Q2149.89 372.684 2149.75 373.153 Q2149.6 373.621 2149.28 374.148 Q2148.96 374.704 2148.25 375.085 Q2147.55 375.466 2146.58 375.524 Q2147.73 376.607 2149.48 376.607 Q2150.04 376.607 2150.54 376.373 Q2151.03 376.168 2151.44 375.641 Q2151.88 375.114 2152.21 374.587 Q2152.53 374.09 2152.85 373.123 Q2153.17 372.186 2153.38 371.484 Q2153.58 370.781 2153.84 369.522 Q2154.14 368.263 2154.28 367.502 Q2154.43 366.77 2154.69 365.335 L2159.17 341.649 L2155.22 341.649 Q2154.52 341.649 2154.23 341.62 Q2153.96 341.591 2153.76 341.445 Q2153.55 341.269 2153.55 340.918 Q2153.55 340.361 2153.79 340.127 Q2154.05 339.864 2154.34 339.834 Q2154.64 339.776 2155.34 339.776 L2159.5 339.776 Q2160.9 332.368 2161.46 330.377 Q2162.1 328.269 2163.1 326.806 Q2164.09 325.312 2165.2 324.61 Q2166.32 323.907 2167.22 323.643 Q2168.16 323.351 2169.07 323.351 Q2171.12 323.351 2172.7 324.463 Q2174.28 325.547 2174.28 327.479 Z" fill="#000000" fill-rule="nonzero" fill-opacity="1" /><path clip-path="url(#clip370)" d="M2182.35 350.638 Q2182.35 340.508 2186.13 332.339 Q2187.74 328.914 2190 326.044 Q2192.25 323.175 2193.74 321.916 Q2195.24 320.657 2195.65 320.657 Q2196.23 320.657 2196.26 321.243 Q2196.26 321.535 2195.47 322.267 Q2185.81 332.105 2185.84 350.638 Q2185.84 369.229 2195.24 378.686 Q2196.26 379.711 2196.26 380.033 Q2196.26 380.619 2195.65 380.619 Q2195.24 380.619 2193.8 379.418 Q2192.37 378.218 2190.14 375.466 Q2187.92 372.714 2186.31 369.347 Q2182.35 361.178 2182.35 350.638 Z" fill="#000000" fill-rule="nonzero" fill-opacity="1" /><path clip-path="url(#clip370)" d="M2227.14 343.318 Q2227.14 344.08 2226.94 345.573 Q2226.73 347.066 2226.23 349.233 Q2225.74 351.399 2225 353.683 Q2224.3 355.966 2223.19 358.25 Q2222.08 360.505 2220.76 362.291 Q2219.44 364.076 2217.6 365.189 Q2215.75 366.302 2213.67 366.302 Q2212.71 366.302 2211.77 366.155 Q2210.83 366.009 2209.66 365.54 Q2208.49 365.072 2207.64 364.311 Q2206.79 363.52 2206.21 362.115 Q2205.62 360.71 2205.62 358.865 Q2205.62 356.962 2206.32 354.415 Q2207.06 351.838 2209.05 346.568 Q2210.07 343.845 2210.07 342.352 Q2210.07 341.679 2209.93 341.269 Q2209.78 340.83 2209.49 340.683 Q2209.19 340.508 2209.02 340.478 Q2208.87 340.449 2208.58 340.449 Q2206.97 340.449 2205.33 342.118 Q2203.69 343.787 2202.52 347.886 Q2202.28 348.618 2202.14 348.793 Q2201.99 348.969 2201.55 348.969 Q2200.82 348.94 2200.82 348.354 Q2200.82 348.178 2201.02 347.505 Q2201.23 346.802 2201.61 345.748 Q2201.99 344.665 2202.66 343.553 Q2203.34 342.411 2204.16 341.415 Q2205.01 340.42 2206.21 339.776 Q2207.41 339.132 2208.75 339.132 Q2210.95 339.132 2212.3 340.566 Q2213.67 341.972 2213.67 344.05 Q2213.67 345.192 2212.94 347.037 Q2211.71 350.374 2211.15 351.985 Q2210.6 353.595 2210.01 355.879 Q2209.46 358.162 2209.46 359.743 Q2209.46 362.144 2210.57 363.549 Q2211.68 364.955 2213.91 364.955 Q2215.9 364.955 2217.68 363.52 Q2219.5 362.056 2220.7 359.978 Q2221.9 357.87 2222.81 355.527 Q2223.72 353.156 2224.13 351.37 Q2224.56 349.555 2224.56 348.705 Q2224.56 345.748 2222.54 343.816 Q2221.99 343.26 2221.78 342.908 Q2221.58 342.557 2221.58 342.001 Q2221.58 340.976 2222.49 340.068 Q2223.42 339.132 2224.51 339.132 Q2225.5 339.132 2226.32 340.127 Q2227.14 341.122 2227.14 343.318 Z" fill="#000000" fill-rule="nonzero" fill-opacity="1" /><path clip-path="url(#clip370)" d="M2233.22 380.033 Q2233.22 379.74 2233.98 379.008 Q2243.64 369.171 2243.64 350.638 Q2243.64 332.046 2234.36 322.648 Q2233.22 321.565 2233.22 321.243 Q2233.22 320.657 2233.8 320.657 Q2234.21 320.657 2235.65 321.858 Q2237.11 323.058 2239.31 325.81 Q2241.53 328.562 2243.17 331.929 Q2247.12 340.098 2247.12 350.638 Q2247.12 360.768 2243.35 368.937 Q2241.74 372.362 2239.48 375.231 Q2237.23 378.101 2235.73 379.36 Q2234.24 380.619 2233.8 380.619 Q2233.22 380.619 2233.22 380.033 Z" fill="#000000" fill-rule="nonzero" fill-opacity="1" /></svg>
